<svg version="1.1" viewBox="0.0 0.0 100.0 100.0" fill="none" stroke="none" stroke-linecap="square" stroke-miterlimit="10" xmlns:xlink="http://www.w3.org/1999/xlink" xmlns="http://www.w3.org/2000/svg"><clipPath id="p.0"><path d="m0 0l100.0 0l0 100.0l-100.0 0l0 -100.0z" clip-rule="nonzero"/></clipPath><g clip-path="url(#p.0)"><path fill="#000000" fill-opacity="0.0" d="m0 0l100.0 0l0 100.0l-100.0 0z" fill-rule="evenodd"/><path fill="#73d425" d="m0 50.0l0 0c0 -27.614237 22.385763 -50.0 50.0 -50.0l0 0c13.260826 0 25.978523 5.267842 35.35534 14.644661c9.376816 9.37682 14.644661 22.094513 14.644661 35.35534l0 0c0 27.614235 -22.385765 50.0 -50.0 50.0l0 0c-27.614237 0 -50.0 -22.385765 -50.0 -50.0zm11.128 0l0 0c0 21.468414 17.403587 38.872 38.872 38.872c21.468414 0 38.872 -17.403587 38.872 -38.872l0 0c0 -21.468412 -17.403587 -38.872 -38.872 -38.872l0 0c-21.468412 0 -38.872 17.403587 -38.872 38.872z" fill-rule="evenodd"/><path fill="#73d425" d="m40.340477 41.498688l0 0c0 -7.8276596 6.514786 -14.173229 14.551182 -14.173229l0 0c3.8592148 0 7.560364 1.493248 10.289242 4.151243c2.7288742 2.6579952 4.26194 6.263014 4.26194 10.021986l0 0c0 7.8276596 -6.514786 14.173229 -14.551182 14.173229l0 0c-8.036396 0 -14.551182 -6.3455696 -14.551182 -14.173229zm3.720192 0l0 0c0 5.773056 4.8491974 10.453041 10.83099 10.453041c5.9817924 0 10.83099 -4.679985 10.83099 -10.453041l0 0c0 -5.773056 -4.8491974 -10.453039 -10.83099 -10.453039l0 0c-5.9817924 0 -10.83099 4.679983 -10.83099 10.453039z" fill-rule="evenodd"/><path fill="#73d425" d="m22.45567 50.0l0 0c0 -15.21175 12.331558 -27.543306 27.543308 -27.543306l0 0c7.3049393 0 14.310684 2.9018745 19.476059 8.067247c5.1653748 5.165371 8.0672455 12.17112 8.0672455 19.476059l0 0c0 15.211746 -12.331558 27.543304 -27.543304 27.543304l0 0c-15.21175 0 -27.543308 -12.331558 -27.543308 -27.543304zm5.797867 0l0 0c0 12.009674 9.735764 21.745438 21.745441 21.745438c12.009674 0 21.745438 -9.735764 21.745438 -21.745438l0 0c0 -12.009674 -9.735764 -21.745441 -21.745438 -21.745441l0 0c-12.009678 0 -21.745441 9.735767 -21.745441 21.745441z" fill-rule="evenodd"/><path fill="#73d425" d="m29.955288 62.643044l0 0c0 -6.836155 5.6898613 -12.377953 12.70866 -12.377953l0 0c3.3705482 0 6.6030464 1.3041039 8.986382 3.6254196c2.383335 2.3213158 3.7222824 5.469696 3.7222824 8.752533l0 0c0 6.8361588 -5.6898613 12.377953 -12.708664 12.377953l0 0c-7.018799 0 -12.70866 -5.541794 -12.70866 -12.377953zm5.5428467 0l0 0c0 3.7749252 3.2082443 6.835106 7.1658134 6.835106c3.957573 0 7.1658173 -3.0601807 7.1658173 -6.835106c0 -3.7749252 -3.2082443 -6.835106 -7.1658173 -6.835106l0 0c-3.9575691 0 -7.1658134 3.0601807 -7.1658134 6.835106z" fill-rule="evenodd"/><path fill="#73d425" d="m27.10999 42.110233l0 0c2.565733 -8.740883 7.945366 -14.853785 12.015747 -13.653543l0 0c1.95467 0.57637596 3.3398247 2.7966042 3.85075 6.1722584c0.5109253 3.3756561 0.10577011 7.6302223 -1.126339 11.827744l0 0c-2.565731 8.740883 -7.945366 14.853783 -12.015747 13.653542l0 0c-4.070383 -1.2002411 -5.290142 -9.259113 -2.724411 -18.0z" fill-rule="evenodd"/><path fill="#73d425" d="m62.17318 53.792645l0 0c2.739685 -9.323612 7.5975647 -16.10632 10.850395 -15.149609l0 0c1.5620651 0.4594307 2.5375137 2.6786652 2.7117538 6.1695023c0.17424774 3.4908333 -0.46697998 7.9673157 -1.7826233 12.444672l0 0c-2.7396774 9.323608 -7.5975647 16.106323 -10.850391 15.149605l0 0c-1.5620613 -0.45942688 -2.53751 -2.6786652 -2.7117577 -6.1695023c-0.17424393 -3.4908295 0.4669838 -7.967312 1.7826233 -12.444668z" fill-rule="evenodd"/><path fill="#73d425" d="m50.78499 61.65879l0 0c1.7916641 -6.1055717 6.170109 -10.187889 9.779526 -9.118111l0 0c1.7333069 0.5137253 3.053833 2.1711464 3.671074 4.6076393c0.61724854 2.4364967 0.48065186 5.452488 -0.37973404 8.384487l0 0c-1.7916641 6.1055756 -6.170109 10.187889 -9.779526 9.118111l0 0c-3.6094208 -1.0697784 -5.083004 -6.886551 -3.2913399 -12.992126z" fill-rule="evenodd"/><path fill="#73d425" d="m33.914085 54.611652l0 0c-1.9482193 -2.3743896 -1.137394 -6.259289 1.8110237 -8.677166l0 0c2.9484177 -2.4178772 6.917923 -2.4531288 8.866138 -0.078739166l0 0c1.9482193 2.3743858 1.1373978 6.259289 -1.8110237 8.677162l0 0c-2.9484177 2.4178772 -6.917923 2.4531326 -8.866138 0.07874298z" fill-rule="evenodd"/><path fill="#73d425" d="m37.326157 33.979103l0 0c-1.9482155 -2.3743877 -1.137394 -6.259287 1.8110237 -8.677164l0 0c2.9484177 -2.4178753 6.917927 -2.4531288 8.866142 -0.078739166l0 0c1.9482155 2.3743896 1.137394 6.259289 -1.8110237 8.677164l0 0c-2.9484177 2.4178772 -6.917923 2.4531288 -8.866142 0.078739166z" fill-rule="evenodd"/><path fill="#73d425" d="m49.58304 56.580017l0 0c0.80885696 -2.7657738 4.390579 -4.140648 8.0 -3.0708656l0 0c3.6094208 1.0697784 5.8797226 4.1791077 5.0708656 6.9448814l0 0c-0.80885696 2.76577 -4.390579 4.140648 -8.0 3.0708656l0 0c-3.6094208 -1.0697784 -5.8797226 -4.1791077 -5.0708656 -6.9448814z" fill-rule="evenodd"/><path fill="#73d425" d="m43.181396 26.488174l0 0c0.6523018 -2.226534 3.3385963 -3.3898888 6.0 -2.5984268l0 0c2.6614037 0.79146385 4.2901 3.2380333 3.6377945 5.464567l0 0c-0.6523056 2.226534 -3.3385963 3.3898907 -6.0 2.5984268l0 0c-2.6614037 -0.79146385 -4.2901 -3.2380333 -3.6377945 -5.464567z" fill-rule="evenodd"/></g></svg>